<svg id="Layer_1" data-name="Layer 1" xmlns="http://www.w3.org/2000/svg" viewBox="0 0 64 64"><defs><style>.cls-1,.cls-2{fill:#fff;}.cls-1{fill-opacity:0.1;}</style></defs><title>logo</title><circle class="cls-1" cx="32" cy="32" r="32"/><path class="cls-2" d="M50.74,45.07q-5.19-14.53-10.48-29a2.84,2.84,0,0,0-3-2.05c-3.5.06-7,.05-10.52,0a2.82,2.82,0,0,0-3,2.11c-3.47,9.61-7,19.2-10.43,28.81-.9,2.5.21,4,2.87,4,3.12,0,6.22,0,9.34,0,.93,0,1.89,0,2.38-1s-.16-1.63-.64-2.34A18.38,18.38,0,0,1,24,36.75c-.13-1.45.49-2.13,1.9-2.13h5.95c1.93,0,3.84,0,5.76,0s2.58.65,2.28,2.73a20.09,20.09,0,0,1-3.31,8.46C35.37,47.66,36,48.92,38.13,49c3.31,0,6.62.06,9.92,0C50.45,48.89,51.54,47.32,50.74,45.07ZM34.29,25.47a9,9,0,0,0-2,3.78c-.31,1.39-1.19,1.42-2.16.48A5.24,5.24,0,0,1,29.76,23a9.15,9.15,0,0,0,2-3.8c.23-1.22,1.18-1.33,2.06-.44a4.92,4.92,0,0,1,1.47,3.68A4.15,4.15,0,0,1,34.29,25.47Z"/></svg>